<svg width="70" height="70" viewBox="0 0 70 70" fill="none" xmlns="http://www.w3.org/2000/svg">
<rect width="70" height="70" rx="8" fill="#27CBEE"/>
<path d="M54.2096 35C55.2467 33.8591 55.8254 32.3751 55.8346 30.8333C55.8346 29.1757 55.1762 27.586 54.0041 26.4139C52.8319 25.2418 51.2422 24.5833 49.5846 24.5833H38.793C39.1258 23.642 39.2282 22.6347 39.0918 21.6457C38.9553 20.6567 38.5839 19.7147 38.0086 18.8987C37.4333 18.0827 36.6709 17.4164 35.7852 16.9556C34.8996 16.4947 33.9164 16.2528 32.918 16.25H20.418C18.7604 16.25 17.1707 16.9085 15.9986 18.0806C14.8264 19.2527 14.168 20.8424 14.168 22.5C14.1772 24.0418 14.7559 25.5258 15.793 26.6667C14.7681 27.8125 14.2014 29.296 14.2014 30.8333C14.2014 32.3707 14.7681 33.8541 15.793 35C14.7681 36.1459 14.2014 37.6293 14.2014 39.1667C14.2014 40.704 14.7681 42.1875 15.793 43.3333C14.7559 44.4742 14.1772 45.9582 14.168 47.5C14.168 49.1576 14.8264 50.7473 15.9986 51.9194C17.1707 53.0915 18.7604 53.75 20.418 53.75H49.5846C50.7883 53.7436 51.9645 53.3897 52.9719 52.7309C53.9793 52.0721 54.775 51.1365 55.2635 50.0363C55.752 48.9362 55.9123 47.7184 55.7254 46.5294C55.5384 45.3403 55.0121 44.2305 54.2096 43.3333C55.2345 42.1875 55.8012 40.704 55.8012 39.1667C55.8012 37.6293 55.2345 36.1459 54.2096 35ZM32.918 49.5833H20.418C19.8654 49.5833 19.3355 49.3638 18.9448 48.9731C18.5541 48.5824 18.3346 48.0525 18.3346 47.5C18.3346 46.9475 18.5541 46.4176 18.9448 46.0269C19.3355 45.6362 19.8654 45.4167 20.418 45.4167H32.918C33.4705 45.4167 34.0004 45.6362 34.3911 46.0269C34.7818 46.4176 35.0013 46.9475 35.0013 47.5C35.0013 48.0525 34.7818 48.5824 34.3911 48.9731C34.0004 49.3638 33.4705 49.5833 32.918 49.5833ZM32.918 41.25H20.418C19.8654 41.25 19.3355 41.0305 18.9448 40.6398C18.5541 40.2491 18.3346 39.7192 18.3346 39.1667C18.3346 38.6141 18.5541 38.0842 18.9448 37.6935C19.3355 37.3028 19.8654 37.0833 20.418 37.0833H32.918C33.4705 37.0833 34.0004 37.3028 34.3911 37.6935C34.7818 38.0842 35.0013 38.6141 35.0013 39.1667C35.0013 39.7192 34.7818 40.2491 34.3911 40.6398C34.0004 41.0305 33.4705 41.25 32.918 41.25ZM32.918 32.9167H20.418C19.8654 32.9167 19.3355 32.6972 18.9448 32.3065C18.5541 31.9158 18.3346 31.3859 18.3346 30.8333C18.3346 30.2808 18.5541 29.7509 18.9448 29.3602C19.3355 28.9695 19.8654 28.75 20.418 28.75H32.918C33.4705 28.75 34.0004 28.9695 34.3911 29.3602C34.7818 29.7509 35.0013 30.2808 35.0013 30.8333C35.0013 31.3859 34.7818 31.9158 34.3911 32.3065C34.0004 32.6972 33.4705 32.9167 32.918 32.9167ZM32.918 24.5833H20.418C19.8654 24.5833 19.3355 24.3638 18.9448 23.9731C18.5541 23.5824 18.3346 23.0525 18.3346 22.5C18.3346 21.9475 18.5541 21.4176 18.9448 21.0269C19.3355 20.6362 19.8654 20.4167 20.418 20.4167H32.918C33.4705 20.4167 34.0004 20.6362 34.3911 21.0269C34.7818 21.4176 35.0013 21.9475 35.0013 22.5C35.0013 23.0525 34.7818 23.5824 34.3911 23.9731C34.0004 24.3638 33.4705 24.5833 32.918 24.5833ZM51.0221 48.9792C50.8374 49.174 50.6143 49.3282 50.3668 49.4322C50.1194 49.5362 49.853 49.5877 49.5846 49.5833H38.793C39.2926 48.2394 39.2926 46.7606 38.793 45.4167H49.5846C50.1372 45.4167 50.6671 45.6362 51.0578 46.0269C51.4485 46.4176 51.668 46.9475 51.668 47.5C51.6641 47.7771 51.605 48.0507 51.4941 48.3047C51.3832 48.5587 51.2228 48.788 51.0221 48.9792V48.9792ZM51.0221 40.6458C50.8374 40.8406 50.6143 40.9949 50.3668 41.0989C50.1194 41.2029 49.853 41.2544 49.5846 41.25H38.793C39.2926 39.906 39.2926 38.4273 38.793 37.0833H49.5846C50.1372 37.0833 50.6671 37.3028 51.0578 37.6935C51.4485 38.0842 51.668 38.6141 51.668 39.1667C51.6641 39.4438 51.605 39.7173 51.4941 39.9713C51.3832 40.2253 51.2228 40.4546 51.0221 40.6458V40.6458ZM51.0221 32.3125C50.8374 32.5073 50.6143 32.6616 50.3668 32.7656C50.1194 32.8696 49.853 32.921 49.5846 32.9167H38.793C39.2926 31.5727 39.2926 30.094 38.793 28.75H49.5846C50.1372 28.75 50.6671 28.9695 51.0578 29.3602C51.4485 29.7509 51.668 30.2808 51.668 30.8333C51.6641 31.1104 51.605 31.384 51.4941 31.638C51.3832 31.892 51.2228 32.1213 51.0221 32.3125V32.3125Z" fill="white"/>
</svg>
